#!OML:ASF E:\acrobat2\Project_11_07_03\Capture day 1\Session 1\Acrobat.ASF
:FULLY-SPECIFIED
:DEGREES
1028
root 6.08302 28.1865 13.2337 6.92989 3.83693 -1.74566
lowerback 1.76179 -0.420464 -0.41543
upperback 2.09324 -0.560466 -0.294817
thorax 1.15677 -0.283041 -0.0650377
lowerneck -3.83547 -1.98797 6.06693
upperneck 18.4881 -2.51317 -4.7473
head 6.06933 -1.15842 -2.67819
rclavicle -6.36111e-015 -1.39149e-014
rhumerus -46.1396 -41.0031 -33.4332
rradius 76.1914
rwrist -34.9954
rhand -21.8107 -28.6383
rfingers 7.12502
rthumb 4.59159 -58.5685
lclavicle -6.36111e-015 -1.39149e-014
lhumerus -30.5316 38.9231 34.5883
lradius 76.3693
lwrist 24.3792
lhand -37.4517 -27.4458
lfingers 7.12502
lthumb -10.5104 2.27143
rfemur -16.3416 -5.98696 20.3956
rtibia 13.4623
rfoot -4.71789 -17.2077
rtoes -13.8806
lfemur -7.8831 -1.33927 -20.0011
ltibia 14.0986
lfoot -13.9909 -12.5434
ltoes 28.7412
1029
root 6.08965 28.182 13.2878 6.93769 3.97272 -1.69848
lowerback 1.65507 -0.412354 -0.531298
upperback 2.211 -0.549157 -0.285714
thorax 1.33856 -0.279454 0.00760751
lowerneck -3.89969 -2.06414 5.99305
upperneck 18.3048 -2.63582 -4.62815
head 6.0192 -1.21624 -2.63211
rclavicle -1.17283e-014 -2.18663e-014
rhumerus -46.5759 -41.3466 -33.0804
rradius 76.1344
rwrist -36.1282
rhand -21.9025 -29.3755
rfingers 7.12502
rthumb 4.5029 -59.3076
lclavicle -1.17283e-014 -2.18663e-014
lhumerus -29.8397 39.1814 35.0405
lradius 76.1548
lwrist 24.431
lhand -37.719 -27.7364
lfingers 7.12502
lthumb -10.7682 1.96763
rfemur -16.696 -6.14455 20.1553
rtibia 14.0032
rfoot -4.902 -16.4283
rtoes -13.9925
lfemur -8.06255 -1.67005 -20.2051
ltibia 14.0347
lfoot -14.3542 -11.7065
ltoes 26.4774
1030
root 6.09728 28.1803 13.3426 6.9045 4.07008 -1.66638
lowerback 1.52716 -0.362303 -0.544547
upperback 2.38752 -0.480135 -0.311571
thorax 1.59104 -0.245561 -0.0135047
lowerneck -4.02186 -2.16621 5.8621
upperneck 18.1353 -2.799 -4.45776
head 5.98342 -1.2939 -2.56384
rclavicle 6.75868e-015 3.57812e-015
rhumerus -47.0818 -41.7864 -32.7205
rradius 76.1071
rwrist -37.4447
rhand -21.8954 -30.0569
rfingers 7.12502
rthumb 4.50973 -59.9889
lclavicle 6.75868e-015 3.57812e-015
lhumerus -28.9381 39.4256 35.6305
lradius 75.8573
lwrist 24.4296
lhand -38.0293 -28.1261
lfingers 7.12502
lthumb -11.0676 1.56211
rfemur -16.9905 -6.26013 19.9489
rtibia 14.6133
rfoot -5.09512 -15.4545
rtoes -14.1202
lfemur -8.23132 -1.9231 -20.386
ltibia 14.0776
lfoot -14.6129 -10.9194
ltoes 24.7198
1031
root 6.10606 28.1808 13.3989 6.83002 4.12487 -1.634
lowerback 1.39763 -0.290991 -0.485772
upperback 2.59808 -0.381724 -0.373241
thorax 1.8788 -0.19534 -0.111279
lowerneck -4.16032 -2.27316 5.72507
upperneck 17.9773 -2.9675 -4.29137
head 5.9543 -1.37475 -2.49687
rclavicle 7.25564e-015 -3.57812e-015
rhumerus -47.6101 -42.2454 -32.4217
rradius 76.1161
rwrist -38.8983
rhand -21.8588 -30.661
rfingers 7.12502
rthumb 4.54513 -60.5922
lclavicle 7.25564e-015 -3.57812e-015
lhumerus -27.917 39.6966 36.2676
lradius 75.4737
lwrist 24.3768
lhand -38.3351 -28.5917
lfingers 7.12502
lthumb -11.3625 1.08052
rfemur -17.2309 -6.39131 19.771
rtibia 15.3547
rfoot -5.31601 -14.2946
rtoes -14.3493
lfemur -8.37548 -2.08081 -20.5554
ltibia 14.2053
lfoot -14.7237 -10.2608
ltoes 23.6417
1032
root 6.11389 28.1831 13.4545 6.73128 4.11371 -1.57308
lowerback 1.31921 -0.215251 -0.44502
upperback 2.79418 -0.277442 -0.459268
thorax 2.12371 -0.141836 -0.222955
lowerneck -4.29896 -2.37022 5.52854
upperneck 17.8779 -3.11882 -4.10246
head 5.94646 -1.4488 -2.41333
rclavicle 5.96354e-016 -1.63003e-014
rhumerus -48.1048 -42.6315 -32.2412
rradius 76.1646
rwrist -40.4127
rhand -21.8402 -31.2008
rfingers 7.12502
rthumb 4.56307 -61.1317
lclavicle 5.96354e-016 -1.63003e-014
lhumerus -27.0136 39.8579 36.8101
lradius 75.1083
lwrist 24.3797
lhand -38.6826 -29.0757
lfingers 7.12502
lthumb -11.6976 0.577743
rfemur -17.4558 -6.39465 19.5763
rtibia 16.251
rfoot -5.659 -13.164
rtoes -14.2726
lfemur -8.533 -2.1103 -20.7125
ltibia 14.4254
lfoot -14.6519 -9.77829
ltoes 23.3067
1033
root 6.12082 28.1866 13.5099 6.60905 4.03499 -1.42943
lowerback 1.30731 -0.152234 -0.508487
upperback 2.95425 -0.190081 -0.568005
thorax 2.29513 -0.0984467 -0.298867
lowerneck -4.356 -2.43365 5.34802
upperneck 17.7932 -3.212 -3.9674
head 5.93097 -1.49689 -2.34525
rclavicle -1.25234e-014 2.38542e-015
rhumerus -48.5122 -42.8795 -32.2161
rradius 76.2512
rwrist -41.8917
rhand -21.9338 -31.7061
rfingers 7.12502
rthumb 4.47273 -61.6389
lclavicle -1.25234e-014 2.38542e-015
lhumerus -26.3323 39.9434 37.181
lradius 74.7769
lwrist 24.4461
lhand -39.021 -29.5661
lfingers 7.12502
lthumb -12.0239 0.0685146
rfemur -17.6667 -6.31568 19.302
rtibia 17.3272
rfoot -6.08437 -12.1512
rtoes -13.8879
lfemur -8.68896 -2.00254 -20.9183
ltibia 14.7108
lfoot -14.4035 -9.46613
ltoes 23.4455
1034
root 6.12404 28.1912 13.5608 6.49368 3.88051 -1.23912
lowerback 1.38967 -0.0934907 -0.683854
upperback 3.05099 -0.109408 -0.677555
thorax 2.34888 -0.0608181 -0.31245
lowerneck -4.33445 -2.45936 5.18261
upperneck 17.7484 -3.24456 -3.86992
head 5.91644 -1.51648 -2.28758
rclavicle 7.65321e-015 2.38542e-015
rhumerus -48.8264 -42.9743 -32.3438
rradius 76.3734
rwrist -43.2424
rhand -22.1942 -32.2284
rfingers 7.12502
rthumb 4.22126 -62.1664
lclavicle 7.65321e-015 2.38542e-015
lhumerus -25.8883 39.9457 37.3804
lradius 74.4988
lwrist 24.6043
lhand -39.3395 -30.0612
lfingers 7.12502
lthumb -12.331 -0.444854
rfemur -17.9411 -6.04676 19.0028
rtibia 18.6058
rfoot -6.61256 -11.4302
rtoes -13.4085
lfemur -8.92375 -1.75955 -21.0895
ltibia 15.0861
lfoot -14.0262 -9.24271
ltoes 23.636
1035
root 6.12861 28.1975 13.6133 6.36423 3.73055 -1.06346
lowerback 1.52623 -0.0518199 -0.829268
upperback 3.08751 -0.0531675 -0.782951
thorax 2.31 -0.0346317 -0.3386
lowerneck -4.22706 -2.45557 5.03586
upperneck 17.7636 -3.2288 -3.80446
head 5.90719 -1.51265 -2.24003
rclavicle 1.22253e-014 3.97569e-015
rhumerus -49.1045 -42.905 -32.5637
rradius 76.525
rwrist -44.4215
rhand -22.5115 -32.8043
rfingers 7.12502
rthumb 3.91487 -62.7481
lclavicle 1.22253e-014 3.97569e-015
lhumerus -25.6348 39.878 37.4503
lradius 74.2494
lwrist 24.8377
lhand -39.6309 -30.5648
lfingers 7.12502
lthumb -12.6119 -0.965545
rfemur -18.1842 -5.86877 18.7475
rtibia 20.0124
rfoot -7.09069 -10.8446
rtoes -12.8562
lfemur -9.14094 -1.45851 -21.2184
ltibia 15.461
lfoot -13.5296 -9.07658
ltoes 23.7505
1036
root 6.13487 28.2056 13.6671 6.22453 3.60179 -0.913745
lowerback 1.65842 -0.0187155 -0.911831
upperback 3.11636 -0.00884984 -0.885526
thorax 2.26559 -0.0129682 -0.397282
lowerneck -4.07287 -2.42667 4.99359
upperneck 17.7874 -3.17042 -3.842
head 5.89043 -1.48855 -2.23928
rclavicle 7.25564e-015 1.07344e-014
rhumerus -49.3128 -42.7929 -32.8619
rradius 76.6782
rwrist -45.4464
rhand -22.6508 -33.3827
rfingers 7.12502
rthumb 3.78035 -63.3289
lclavicle 7.25564e-015 1.07344e-014
lhumerus -25.4038 39.8632 37.5096
lradius 73.9811
lwrist 25.088
lhand -39.8908 -31.1084
lfingers 7.12502
lthumb -12.8625 -1.52475
rfemur -18.3878 -5.78829 18.5437
rtibia 21.5129
rfoot -7.56274 -10.3734
rtoes -12.4173
lfemur -9.33278 -1.165 -21.3033
ltibia 15.8084
lfoot -12.9747 -8.90359
ltoes 23.777
1037
root 6.14287 28.2148 13.7231 6.06823 3.4974 -0.808238
lowerback 1.79 0.0115012 -0.9009
upperback 3.1395 0.0314198 -0.985266
thorax 2.2157 0.00877632 -0.505573
lowerneck -3.9693 -2.40673 4.88024
upperneck 17.9099 -3.1259 -3.83584
head 5.91493 -1.47186 -2.21651
rclavicle 3.8763e-015 -3.97569e-015
rhumerus -49.4822 -42.6784 -33.1891
rradius 76.8202
rwrist -46.4289
rhand -22.4499 -33.9067
rfingers 7.12502
rthumb 3.97437 -63.8494
lclavicle 3.8763e-015 -3.97569e-015
lhumerus -25.1678 39.8936 37.5789
lradius 73.6923
lwrist 25.3353
lhand -40.1548 -31.6887
lfingers 7.12502
lthumb -13.117 -2.1212
rfemur -18.5169 -5.78722 18.405
rtibia 23.0448
rfoot -8.05589 -9.95699
rtoes -12.0922
lfemur -9.46154 -0.920379 -21.331
ltibia 16.0838
lfoot -12.4051 -8.69877
ltoes 23.9068
1038
root 6.15269 28.2247 13.7825 5.88819 3.42725 -0.74409
lowerback 1.91071 0.0336611 -0.805091
upperback 3.16607 0.061275 -1.07461
thorax 2.17559 0.0270594 -0.650898
lowerneck -3.91594 -2.39212 4.72124
upperneck 18.1025 -3.08664 -3.82474
head 5.97072 -1.46006 -2.18706
rclavicle -2.78299e-015 1.07344e-014
rhumerus -49.6128 -42.596 -33.5127
rradius 76.9453
rwrist -47.5051
rhand -21.9531 -34.3406
rfingers 7.12502
rthumb 4.45408 -64.2737
lclavicle -2.78299e-015 1.07344e-014
lhumerus -24.9925 39.8661 37.6409
lradius 73.4432
lwrist 25.6379
lhand -40.5355 -32.2792
lfingers 7.12502
lthumb -13.4839 -2.73573
rfemur -18.5289 -5.84557 18.3142
rtibia 24.5389
rfoot -8.59377 -9.54707
rtoes -11.6783
lfemur -9.49615 -0.747351 -21.3127
ltibia 16.2577
lfoot -11.8601 -8.45541
ltoes 24.1639
1039
root 6.16375 28.2342 13.8461 5.69422 3.38315 -0.679456
lowerback 2.00183 0.0478231 -0.69021
upperback 3.20069 0.081068 -1.15056
thorax 2.16051 0.0405387 -0.793268
lowerneck -3.91566 -2.38534 4.51215
upperneck 18.3521 -3.0547 -3.81372
head 6.05415 -1.45513 -2.15165
rclavicle -3.18055e-015 5.96354e-015
rhumerus -49.6972 -42.5727 -33.8051
rradius 77.0562
rwrist -48.7569
rhand -21.3278 -34.6553
rfingers 7.12502
rthumb 5.0578 -64.575
lclavicle -3.18055e-015 5.96354e-015
lhumerus -24.814 39.9274 37.7432
lradius 73.1792
lwrist 25.8754
lhand -41.0137 -32.8511
lfingers 7.12502
lthumb -13.9448 -3.33873
rfemur -18.4256 -5.96551 18.2272
rtibia 25.9822
rfoot -9.16176 -9.12282
rtoes -11.3869
lfemur -9.44423 -0.650719 -21.2971
ltibia 16.3305
lfoot -11.3762 -8.16508
ltoes 24.4646
1040
root 6.17486 28.2424 13.9132 5.51 3.3521 -0.565499
lowerback 2.0499 0.0546396 -0.63383
upperback 3.23449 0.0913739 -1.21809
thorax 2.16872 0.0478676 -0.894248
lowerneck -3.96669 -2.38871 4.1834
upperneck 18.637 -3.03642 -3.74025
head 6.16047 -1.46059 -2.07875
rclavicle 2.38542e-015 2.22639e-014
rhumerus -49.7503 -42.5985 -34.0528
rradius 77.1693
rwrist -50.1588
rhand -20.7604 -34.8492
rfingers 7.12502
rthumb 5.6057 -64.7551
lclavicle 2.38542e-015 2.22639e-014
lhumerus -24.7394 39.9647 37.8447
lradius 73.006
lwrist 26.1092
lhand -41.5973 -33.3657
lfingers 7.12502
lthumb -14.5072 -3.8929
rfemur -18.227 -6.07041 18.0759
rtibia 27.3236
rfoot -9.75858 -8.73964
rtoes -10.9501
lfemur -9.34527 -0.625222 -21.3324
ltibia 16.3249
lfoot -10.9392 -7.83979
ltoes 24.9301
1041
root 6.18529 28.2491 13.9836 5.3606 3.34065 -0.403718
lowerback 2.03404 0.0489057 -0.649821
upperback 3.25689 0.085187 -1.27475
thorax 2.20078 0.0451779 -0.943461
lowerneck -4.01159 -2.38609 3.83428
upperneck 18.8963 -3.00813 -3.66232
head 6.25869 -1.46294 -1.99968
rclavicle 1.0138e-014 1.07344e-014
rhumerus -49.7825 -42.6422 -34.2618
rradius 77.2844
rwrist -51.5395
rhand -20.3676 -34.9261
rfingers 7.12502
rthumb 5.9849 -64.8216
lclavicle 1.0138e-014 1.07344e-014
lhumerus -24.7957 39.9753 37.9177
lradius 72.9485
lwrist 26.3453
lhand -42.2262 -33.8477
lfingers 7.12502
lthumb -15.1131 -4.41949
rfemur -17.9552 -6.13714 17.8648
rtibia 28.5197
rfoot -10.3513 -8.43729
rtoes -10.2553
lfemur -9.24916 -0.652918 -21.4105
ltibia 16.273
lfoot -10.5242 -7.48856
ltoes 25.4897
1042
root 6.19106 28.2537 14.0513 5.28117 3.30224 -0.202738
lowerback 2.00145 0.0493806 -0.779375
upperback 3.23768 0.0861221 -1.31763
thorax 2.19926 0.0432337 -0.91484
lowerneck -4.03359 -2.37214 3.51892
upperneck 19.126 -2.96558 -3.59265
head 6.34355 -1.45729 -1.92688
rclavicle 4.37326e-015 -1.11319e-014
rhumerus -49.8132 -42.6712 -34.4457
rradius 77.3888
rwrist -52.6293
rhand -20.1593 -34.8821
rfingers 7.12502
rthumb 6.186 -64.7717
lclavicle 4.37326e-015 -1.11319e-014
lhumerus -24.9867 39.923 37.9405
lradius 73.0122
lwrist 26.6091
lhand -42.8624 -34.3723
lfingers 7.12502
lthumb -15.7258 -4.99119
rfemur -17.7214 -6.01397 17.636
rtibia 29.6089
rfoot -10.9709 -8.36381
rtoes -9.41413
lfemur -9.2747 -0.691266 -21.467
ltibia 16.2619
lfoot -10.1544 -7.07702
ltoes 25.8647
